<mxfile host="app.diagrams.net" modified="2024-03-06T06:25:19.142Z" agent="Mozilla/5.0 (Macintosh; Intel Mac OS X 10_15_7) AppleWebKit/537.36 (KHTML, like Gecko) Chrome/120.0.0.0 Safari/537.36" etag="2WATLsdm_gAVIfBW95MH" version="23.1.5" type="github">
  <diagram name="第 1 页" id="uv7tiEOXnF1GQUqM_LkT">
    <mxGraphModel dx="1242" dy="730" grid="1" gridSize="10" guides="1" tooltips="1" connect="1" arrows="1" fold="1" page="1" pageScale="1" pageWidth="827" pageHeight="1169" math="0" shadow="0">
      <root>
        <mxCell id="0" />
        <mxCell id="1" parent="0" />
        <mxCell id="C5bJ0js2d8cGLiDG2ndi-8" style="edgeStyle=orthogonalEdgeStyle;rounded=0;orthogonalLoop=1;jettySize=auto;html=1;exitX=1;exitY=0.25;exitDx=0;exitDy=0;entryX=0;entryY=0.25;entryDx=0;entryDy=0;" edge="1" parent="1" source="C5bJ0js2d8cGLiDG2ndi-1" target="C5bJ0js2d8cGLiDG2ndi-3">
          <mxGeometry relative="1" as="geometry" />
        </mxCell>
        <mxCell id="C5bJ0js2d8cGLiDG2ndi-1" value="api-server" style="rounded=0;whiteSpace=wrap;html=1;" vertex="1" parent="1">
          <mxGeometry x="350" y="330" width="120" height="50" as="geometry" />
        </mxCell>
        <mxCell id="C5bJ0js2d8cGLiDG2ndi-6" style="rounded=0;orthogonalLoop=1;jettySize=auto;html=1;exitX=1;exitY=1;exitDx=0;exitDy=0;entryX=0.5;entryY=0;entryDx=0;entryDy=0;dashed=1;" edge="1" parent="1" source="C5bJ0js2d8cGLiDG2ndi-2" target="C5bJ0js2d8cGLiDG2ndi-3">
          <mxGeometry relative="1" as="geometry" />
        </mxCell>
        <mxCell id="C5bJ0js2d8cGLiDG2ndi-7" style="edgeStyle=orthogonalEdgeStyle;rounded=0;orthogonalLoop=1;jettySize=auto;html=1;exitX=0.5;exitY=1;exitDx=0;exitDy=0;entryX=0.5;entryY=0;entryDx=0;entryDy=0;" edge="1" parent="1" source="C5bJ0js2d8cGLiDG2ndi-2" target="C5bJ0js2d8cGLiDG2ndi-1">
          <mxGeometry relative="1" as="geometry" />
        </mxCell>
        <mxCell id="C5bJ0js2d8cGLiDG2ndi-2" value="workload" style="rounded=0;whiteSpace=wrap;html=1;" vertex="1" parent="1">
          <mxGeometry x="350" y="210" width="120" height="50" as="geometry" />
        </mxCell>
        <mxCell id="C5bJ0js2d8cGLiDG2ndi-9" style="edgeStyle=orthogonalEdgeStyle;rounded=0;orthogonalLoop=1;jettySize=auto;html=1;exitX=0;exitY=0.75;exitDx=0;exitDy=0;entryX=1;entryY=0.75;entryDx=0;entryDy=0;dashed=1;" edge="1" parent="1" source="C5bJ0js2d8cGLiDG2ndi-3" target="C5bJ0js2d8cGLiDG2ndi-1">
          <mxGeometry relative="1" as="geometry" />
        </mxCell>
        <mxCell id="C5bJ0js2d8cGLiDG2ndi-3" value="webhook" style="rounded=0;whiteSpace=wrap;html=1;" vertex="1" parent="1">
          <mxGeometry x="590" y="330" width="120" height="50" as="geometry" />
        </mxCell>
        <mxCell id="C5bJ0js2d8cGLiDG2ndi-5" style="edgeStyle=orthogonalEdgeStyle;rounded=0;orthogonalLoop=1;jettySize=auto;html=1;exitX=0.5;exitY=1;exitDx=0;exitDy=0;dashed=1;" edge="1" parent="1" source="C5bJ0js2d8cGLiDG2ndi-4" target="C5bJ0js2d8cGLiDG2ndi-3">
          <mxGeometry relative="1" as="geometry" />
        </mxCell>
        <mxCell id="C5bJ0js2d8cGLiDG2ndi-4" value="policy config" style="rounded=0;whiteSpace=wrap;html=1;" vertex="1" parent="1">
          <mxGeometry x="590" y="210" width="120" height="50" as="geometry" />
        </mxCell>
        <mxCell id="C5bJ0js2d8cGLiDG2ndi-10" value="" style="rounded=0;whiteSpace=wrap;html=1;dashed=1;" vertex="1" parent="1">
          <mxGeometry x="340" y="440" width="410" height="410" as="geometry" />
        </mxCell>
        <mxCell id="C5bJ0js2d8cGLiDG2ndi-11" value="Node" style="text;html=1;align=center;verticalAlign=middle;whiteSpace=wrap;rounded=0;" vertex="1" parent="1">
          <mxGeometry x="340" y="440" width="60" height="30" as="geometry" />
        </mxCell>
        <mxCell id="C5bJ0js2d8cGLiDG2ndi-12" value="" style="rounded=0;whiteSpace=wrap;html=1;" vertex="1" parent="1">
          <mxGeometry x="370" y="480" width="360" height="180" as="geometry" />
        </mxCell>
        <mxCell id="C5bJ0js2d8cGLiDG2ndi-13" value="Kubelet" style="text;html=1;align=center;verticalAlign=middle;whiteSpace=wrap;rounded=0;" vertex="1" parent="1">
          <mxGeometry x="370" y="480" width="60" height="30" as="geometry" />
        </mxCell>
        <mxCell id="C5bJ0js2d8cGLiDG2ndi-25" style="edgeStyle=elbowEdgeStyle;rounded=0;orthogonalLoop=1;jettySize=auto;html=1;exitX=0.5;exitY=1;exitDx=0;exitDy=0;entryX=0.5;entryY=0;entryDx=0;entryDy=0;elbow=vertical;" edge="1" parent="1" source="C5bJ0js2d8cGLiDG2ndi-15" target="C5bJ0js2d8cGLiDG2ndi-20">
          <mxGeometry relative="1" as="geometry" />
        </mxCell>
        <mxCell id="C5bJ0js2d8cGLiDG2ndi-15" value="admit" style="rounded=1;whiteSpace=wrap;html=1;" vertex="1" parent="1">
          <mxGeometry x="460" y="505" width="80" height="25" as="geometry" />
        </mxCell>
        <mxCell id="C5bJ0js2d8cGLiDG2ndi-23" style="edgeStyle=orthogonalEdgeStyle;rounded=0;orthogonalLoop=1;jettySize=auto;html=1;exitX=0.5;exitY=1;exitDx=0;exitDy=0;entryX=0.5;entryY=0;entryDx=0;entryDy=0;" edge="1" parent="1" source="C5bJ0js2d8cGLiDG2ndi-16" target="C5bJ0js2d8cGLiDG2ndi-20">
          <mxGeometry relative="1" as="geometry" />
        </mxCell>
        <mxCell id="C5bJ0js2d8cGLiDG2ndi-16" value="syncpod" style="rounded=1;whiteSpace=wrap;html=1;" vertex="1" parent="1">
          <mxGeometry x="550" y="505" width="80" height="25" as="geometry" />
        </mxCell>
        <mxCell id="C5bJ0js2d8cGLiDG2ndi-26" style="edgeStyle=elbowEdgeStyle;rounded=0;orthogonalLoop=1;jettySize=auto;html=1;exitX=0.5;exitY=1;exitDx=0;exitDy=0;entryX=0.5;entryY=0;entryDx=0;entryDy=0;elbow=vertical;" edge="1" parent="1" source="C5bJ0js2d8cGLiDG2ndi-17" target="C5bJ0js2d8cGLiDG2ndi-20">
          <mxGeometry relative="1" as="geometry" />
        </mxCell>
        <mxCell id="C5bJ0js2d8cGLiDG2ndi-17" value="evict" style="rounded=1;whiteSpace=wrap;html=1;" vertex="1" parent="1">
          <mxGeometry x="640" y="505" width="80" height="25" as="geometry" />
        </mxCell>
        <mxCell id="C5bJ0js2d8cGLiDG2ndi-31" style="edgeStyle=orthogonalEdgeStyle;rounded=0;orthogonalLoop=1;jettySize=auto;html=1;exitX=0.5;exitY=1;exitDx=0;exitDy=0;" edge="1" parent="1" source="C5bJ0js2d8cGLiDG2ndi-18" target="C5bJ0js2d8cGLiDG2ndi-30">
          <mxGeometry relative="1" as="geometry" />
        </mxCell>
        <mxCell id="C5bJ0js2d8cGLiDG2ndi-18" value="kill container" style="rounded=1;whiteSpace=wrap;html=1;" vertex="1" parent="1">
          <mxGeometry x="550" y="620" width="80" height="25" as="geometry" />
        </mxCell>
        <mxCell id="C5bJ0js2d8cGLiDG2ndi-24" style="edgeStyle=orthogonalEdgeStyle;rounded=0;orthogonalLoop=1;jettySize=auto;html=1;exitX=0.5;exitY=1;exitDx=0;exitDy=0;entryX=0.5;entryY=0;entryDx=0;entryDy=0;" edge="1" parent="1" source="C5bJ0js2d8cGLiDG2ndi-20" target="C5bJ0js2d8cGLiDG2ndi-18">
          <mxGeometry relative="1" as="geometry" />
        </mxCell>
        <mxCell id="C5bJ0js2d8cGLiDG2ndi-28" style="edgeStyle=orthogonalEdgeStyle;rounded=0;orthogonalLoop=1;jettySize=auto;html=1;exitX=0;exitY=0.5;exitDx=0;exitDy=0;entryX=1;entryY=0.5;entryDx=0;entryDy=0;dashed=1;startArrow=classic;startFill=1;endArrow=none;endFill=0;" edge="1" parent="1" source="C5bJ0js2d8cGLiDG2ndi-20" target="C5bJ0js2d8cGLiDG2ndi-27">
          <mxGeometry relative="1" as="geometry" />
        </mxCell>
        <mxCell id="C5bJ0js2d8cGLiDG2ndi-20" value="pod protector" style="rounded=1;whiteSpace=wrap;html=1;fillColor=#F19C99;" vertex="1" parent="1">
          <mxGeometry x="550" y="572" width="80" height="25" as="geometry" />
        </mxCell>
        <mxCell id="C5bJ0js2d8cGLiDG2ndi-27" value="pod cache" style="rounded=1;whiteSpace=wrap;html=1;" vertex="1" parent="1">
          <mxGeometry x="400" y="572" width="80" height="25" as="geometry" />
        </mxCell>
        <mxCell id="C5bJ0js2d8cGLiDG2ndi-30" value="CRI" style="rounded=0;whiteSpace=wrap;html=1;" vertex="1" parent="1">
          <mxGeometry x="550" y="680" width="80" height="25" as="geometry" />
        </mxCell>
        <mxCell id="C5bJ0js2d8cGLiDG2ndi-32" value="admi" style="rounded=0;whiteSpace=wrap;html=1;" vertex="1" parent="1">
          <mxGeometry x="550" y="730" width="80" height="25" as="geometry" />
        </mxCell>
        <mxCell id="C5bJ0js2d8cGLiDG2ndi-33" style="rounded=0;orthogonalLoop=1;jettySize=auto;html=1;exitX=0.5;exitY=1;exitDx=0;exitDy=0;entryX=0.5;entryY=0;entryDx=0;entryDy=0;dashed=1;" edge="1" parent="1" source="C5bJ0js2d8cGLiDG2ndi-1" target="C5bJ0js2d8cGLiDG2ndi-27">
          <mxGeometry relative="1" as="geometry" />
        </mxCell>
      </root>
    </mxGraphModel>
  </diagram>
</mxfile>
